# xmcd
#
# Track frame offsets: 
#        150
#        8290
#        17327
#        25645
#        36500
#        46180
#        58660
#        70525
#        84532
#        92145
#        103577
#        115160
#
# Disc length: 1631 seconds
#
# Revision: 0
# Processed by: cddbd v1.5.1PL0 Copyright (c) Steve Scherf et al.
# Submitted via: ExactAudioCopy v0.95a5
#
DISCID=81065d0c
DTITLE=The Florida Boys Quartet - I See JESUS
DYEAR=1900
DGENRE=Bluegrass
TTITLE0=Singing Thru Life
TTITLE1=Too Late
TTITLE2=Hide Me , Rock Of Ages
TTITLE3=What A Friend
TTITLE4=Glad Reunion Day
TTITLE5=I See Jesus
TTITLE6=Journey To The Sky
TTITLE7=Oh , How I Love Jesus
TTITLE8=I'll Fly Away
TTITLE9=Amazing Grace
TTITLE10=River Of Life
TTITLE11=Everybody Ought To Know
EXTD=
EXTT0=
EXTT1=
EXTT2=
EXTT3=
EXTT4=
EXTT5=
EXTT6=
EXTT7=
EXTT8=
EXTT9=
EXTT10=
EXTT11=
PLAYORDER=
